<svg width="16.000000" height="16.000000" viewBox="0 0 16 16" fill="none" xmlns="http://www.w3.org/2000/svg" xmlns:xlink="http://www.w3.org/1999/xlink">

	<defs>
		<clipPath id="clip1_7">
			<rect id="Icon / Field / Calendar" width="16.000000" height="16.000000" fill="white" fill-opacity="0"/>
		</clipPath>
	</defs>
	<rect id="Icon / Field / Calendar" width="16.000000" height="16.000000" fill="#FFFFFF" fill-opacity="0"/>
	<g clip-path="url(#clip1_7)">
		<path id="Vector" d="M8.19 9.59C7.97 9.59 7.78 9.52 7.63 9.36C7.47 9.21 7.4 9.02 7.4 8.79C7.4 8.57 7.47 8.38 7.63 8.22C7.78 8.07 7.97 7.99 8.19 7.99C8.42 7.99 8.61 8.07 8.77 8.22C8.92 8.38 9 8.57 9 8.79C9 9.02 8.92 9.21 8.77 9.36C8.61 9.52 8.42 9.59 8.19 9.59ZM5 9.59C4.77 9.59 4.58 9.52 4.42 9.36C4.27 9.21 4.19 9.02 4.19 8.79C4.19 8.57 4.27 8.38 4.42 8.22C4.58 8.07 4.77 7.99 5 7.99C5.22 7.99 5.41 8.07 5.57 8.22C5.72 8.38 5.8 8.57 5.8 8.79C5.8 9.02 5.72 9.21 5.57 9.36C5.41 9.52 5.22 9.59 5 9.59ZM11.4 9.59C11.17 9.59 10.98 9.52 10.83 9.36C10.67 9.21 10.6 9.02 10.6 8.79C10.6 8.57 10.67 8.38 10.83 8.22C10.98 8.07 11.17 7.99 11.4 7.99C11.62 7.99 11.81 8.07 11.96 8.22C12.12 8.38 12.2 8.57 12.2 8.79C12.2 9.02 12.12 9.21 11.96 9.36C11.81 9.52 11.62 9.59 11.4 9.59ZM8.19 12.8C7.97 12.8 7.78 12.72 7.63 12.56C7.47 12.41 7.4 12.22 7.4 12C7.4 11.77 7.47 11.58 7.63 11.43C7.78 11.27 7.97 11.2 8.19 11.2C8.42 11.2 8.61 11.27 8.77 11.43C8.92 11.58 9 11.77 9 12C9 12.22 8.92 12.41 8.77 12.56C8.61 12.72 8.42 12.8 8.19 12.8ZM5 12.8C4.77 12.8 4.58 12.72 4.42 12.56C4.27 12.41 4.19 12.22 4.19 12C4.19 11.77 4.27 11.58 4.42 11.43C4.58 11.27 4.77 11.2 5 11.2C5.22 11.2 5.41 11.27 5.57 11.43C5.72 11.58 5.8 11.77 5.8 12C5.8 12.22 5.72 12.41 5.57 12.56C5.41 12.72 5.22 12.8 5 12.8ZM11.4 12.8C11.17 12.8 10.98 12.72 10.83 12.56C10.67 12.41 10.6 12.22 10.6 12C10.6 11.77 10.67 11.58 10.83 11.43C10.98 11.27 11.17 11.2 11.4 11.2C11.62 11.2 11.81 11.27 11.96 11.43C12.12 11.58 12.2 11.77 12.2 12C12.2 12.22 12.12 12.41 11.96 12.56C11.81 12.72 11.62 12.8 11.4 12.8ZM2.59 16C2.16 16 1.78 15.84 1.46 15.53C1.15 15.21 1 14.84 1 14.4L1 3.19C1 2.75 1.15 2.38 1.46 2.07C1.78 1.75 2.16 1.59 2.59 1.59L3.4 1.59L3.4 -1.53e-5L5 -1.53e-5L5 1.59L11.4 1.59L11.4 -1.53e-5L13 -1.53e-5L13 1.59L13.8 1.59C14.24 1.59 14.61 1.75 14.93 2.07C15.24 2.38 15.4 2.75 15.4 3.19L15.4 14.4C15.4 14.84 15.24 15.21 14.93 15.53C14.61 15.84 14.24 16 13.8 16L2.59 16ZM2.59 14.4L13.8 14.4L13.8 6.39L2.59 6.39L2.59 14.4Z" fill="#AAAAAA" fill-opacity="1.000000" fill-rule="nonzero"/>
	</g>
</svg>
